<svg width="432" height="299" xmlns="http://www.w3.org/2000/svg" xmlns:xlink="http://www.w3.org/1999/xlink" xml:space="preserve" overflow="hidden"><defs><clipPath id="clip0"><rect x="424" y="210" width="432" height="299"/></clipPath><clipPath id="clip1"><rect x="424" y="210" width="432" height="299"/></clipPath><clipPath id="clip2"><rect x="424" y="211" width="432" height="298"/></clipPath><clipPath id="clip3"><rect x="424" y="211" width="432" height="298"/></clipPath></defs><g clip-path="url(#clip0)" transform="translate(-424 -210)"><g clip-path="url(#clip1)"><g clip-path="url(#clip2)"><g clip-path="url(#clip3)"><path d="M1.16437 262.653C3.54291 257.607 9.03994 254.819 14.5167 255.882 42.7553 261.357 72.7768 275.369 103.747 297.53 128.036 314.909 153.045 337.368 178.081 364.28 178.279 364.493 178.474 364.705 178.672 364.918L94.0385 364.918C85.7022 355.667 77.7608 347.199 70.4725 339.647 33.4471 301.29 4.72247 277.498 4.43728 277.263 0.134156 273.714-1.21331 267.699 1.16437 262.653Z" fill="#47821C" fill-rule="nonzero" fill-opacity="1" transform="matrix(1 0 0 1.00001 424 144.329)"/><path d="M20.6989 172.079C24.0756 167.639 30.0324 166.055 35.1683 168.234 61.6503 179.465 88.0993 199.417 113.78 227.537 133.921 249.59 153.709 276.76 172.598 308.293 184.916 328.858 195.184 348.465 203.2 364.918L128.483 364.918C109.81 324.433 89.1321 288.498 72.4688 261.809 44.2353 216.587 21.0887 187.339 20.8592 187.05 17.3905 182.684 17.323 176.519 20.6989 172.079Z" fill="#4E901E" fill-rule="nonzero" fill-opacity="1" transform="matrix(1 0 0 1.00001 424 144.329)"/><path d="M67.9852 103.111C72.1119 99.3575 78.257 98.8816 82.9119 101.956 106.914 117.809 129.3 142.231 149.451 174.547 165.254 199.89 179.781 230.201 192.63 264.639 209.028 308.591 218.378 347.515 222.155 364.918L150.361 364.918C139.188 301.412 118.691 241.546 102.606 200.749 83.052 151.153 65.5999 118.187 65.4277 117.863 62.8062 112.939 63.8592 106.864 67.9852 103.111Z" fill="#5EAC24" fill-rule="nonzero" fill-opacity="1" transform="matrix(1 0 0 1.00001 424 144.329)"/><path d="M172.702 364.845C172.704 364.413 172.727 363.987 172.773 363.568 176.949 291.553 167.781 219.186 159.34 171.103 150.131 118.642 139.764 82.9027 139.661 82.5491 138.099 77.209 140.258 71.458 144.906 68.5834 149.554 65.7079 155.502 66.4419 159.355 70.3671 179.221 90.6036 195.917 118.929 208.979 154.557 219.224 182.5 227.308 215.065 233.007 251.35 242.552 312.111 242.174 362.015 242.139 365.162L172.702 364.845Z" fill="#6DC82A" fill-rule="nonzero" fill-opacity="1" transform="matrix(1 0 0 1.00001 424 144.329)"/><path d="M430.836 262.653C428.457 257.607 422.96 254.819 417.483 255.882 389.245 261.357 359.223 275.369 328.253 297.53 303.964 314.909 278.955 337.368 253.919 364.28 253.721 364.493 253.526 364.705 253.328 364.918L337.962 364.918C346.297 355.667 354.239 347.199 361.527 339.647 398.553 301.29 427.278 277.498 427.563 277.263 431.866 273.714 433.213 267.699 430.836 262.653Z" fill="#4E901E" fill-rule="nonzero" fill-opacity="1" transform="matrix(1 0 0 1.00001 424 144.329)"/><path d="M411.301 172.079C407.924 167.639 401.968 166.055 396.832 168.234 370.35 179.465 343.901 199.417 318.22 227.537 298.079 249.59 278.291 276.76 259.402 308.293 247.084 328.858 236.816 348.465 228.799 364.918L303.516 364.918C322.189 324.433 342.867 288.498 359.53 261.809 387.764 216.587 410.91 187.339 411.14 187.05 414.609 182.684 414.677 176.519 411.301 172.079Z" fill="#5EAC24" fill-rule="nonzero" fill-opacity="1" transform="matrix(1 0 0 1.00001 424 144.329)"/><path d="M364.015 103.111C359.888 99.3575 353.743 98.8816 349.088 101.956 325.086 117.809 302.7 142.231 282.549 174.547 266.747 199.89 252.219 230.201 239.37 264.639 222.972 308.591 213.622 347.515 209.845 364.918L281.639 364.918C292.812 301.412 313.309 241.546 329.394 200.749 348.948 151.153 366.4 118.187 366.572 117.863 369.195 112.939 368.141 106.864 364.015 103.111Z" fill="#6DC82A" fill-rule="nonzero" fill-opacity="1" transform="matrix(1 0 0 1.00001 424 144.329)"/><path d="M260.613 364.918C260.613 364.486 260.59 364.06 260.547 363.64 256.592 291.607 266.364 219.283 275.274 171.239 284.995 118.821 295.829 83.1296 295.936 82.7769 297.568 77.4436 295.372 71.6833 290.607 68.7876 285.839 65.8901 279.716 66.5972 275.735 70.5046 255.202 90.65 237.893 118.898 224.287 154.468 213.616 182.363 205.146 214.891 199.112 251.15 189.007 311.867 189.161 361.772 189.181 364.919L260.614 364.919 260.614 364.918Z" fill="#91DC5A" fill-rule="nonzero" fill-opacity="1" transform="matrix(1 0 0 1.00001 424 144.329)"/><path d="M101.388 364.918 41.1429 364.918C37.4912 364.918 34.5305 361.958 34.5305 358.305 34.5305 354.653 37.4912 351.693 41.1429 351.693L101.388 351.693C105.039 351.693 108 354.653 108 358.305 108 361.958 105.039 364.918 101.388 364.918Z" fill="#47821C" fill-rule="nonzero" fill-opacity="1" transform="matrix(1 0 0 1.00001 424 144.329)"/><path d="M18.5144 364.918 7.05291 364.918C3.40116 364.918 0.440438 361.958 0.440438 358.305 0.440438 354.653 3.40116 351.693 7.05291 351.693L18.5144 351.693C22.1662 351.693 25.1269 354.653 25.1269 358.305 25.1269 361.958 22.1662 364.918 18.5144 364.918Z" fill="#47821C" fill-rule="nonzero" fill-opacity="1" transform="matrix(1 0 0 1.00001 424 144.329)"/><path d="M374.988 364.918 326.205 364.918C322.552 364.918 319.592 361.958 319.592 358.305 319.592 354.653 322.552 351.693 326.205 351.693L374.988 351.693C378.64 351.693 381.6 354.653 381.6 358.305 381.6 361.958 378.64 364.918 374.988 364.918Z" fill="#4E901E" fill-rule="nonzero" fill-opacity="1" transform="matrix(1 0 0 1.00001 424 144.329)"/><path d="M424.367 364.918 398.498 364.918C394.845 364.918 391.886 361.958 391.886 358.305 391.886 354.653 394.845 351.693 398.498 351.693L424.367 351.693C428.02 351.693 430.98 354.653 430.98 358.305 430.98 361.958 428.019 364.918 424.367 364.918Z" fill="#4E901E" fill-rule="nonzero" fill-opacity="1" transform="matrix(1 0 0 1.00001 424 144.329)"/><path d="M228.797 338.669C225.215 338.669 222.272 335.808 222.19 332.21 221.673 309.801 222.804 285.818 225.553 260.929 225.954 257.301 229.222 254.689 232.851 255.082 236.481 255.482 239.099 258.75 238.699 262.38 236.013 286.689 234.907 310.08 235.411 331.904 235.496 335.555 232.604 338.583 228.953 338.667 228.9 338.669 228.848 338.669 228.797 338.669Z" fill="#5EAC24" fill-rule="nonzero" fill-opacity="1" transform="matrix(1 0 0 1.00001 424 144.329)"/><path d="M236.053 239.141C235.707 239.141 235.359 239.115 235.007 239.058 231.4 238.486 228.941 235.097 229.514 231.49 232.662 211.668 235.594 199.371 235.718 198.858 236.57 195.307 240.139 193.122 243.689 193.971 247.239 194.822 249.428 198.391 248.577 201.941 248.549 202.063 245.635 214.298 242.575 233.564 242.058 236.82 239.248 239.141 236.053 239.141Z" fill="#5EAC24" fill-rule="nonzero" fill-opacity="1" transform="matrix(1 0 0 1.00001 424 144.329)"/></g></g></g></g></svg>