<?xml version="1.0" standalone="no"?>
<!DOCTYPE svg PUBLIC "-//W3C//DTD SVG 20010904//EN"
 "http://www.w3.org/TR/2001/REC-SVG-20010904/DTD/svg10.dtd">
<svg version="1.0" xmlns="http://www.w3.org/2000/svg"
 width="700.000000pt" height="700.000000pt" viewBox="0 0 700.000000 700.000000"
 preserveAspectRatio="xMidYMid meet">
<metadata>
Created by potrace 1.14, written by Peter Selinger 2001-2017
</metadata>
<g transform="translate(0.000000,700.000000) scale(0.100000,-0.100000)"
fill="#000000" stroke="none">
<path d="M2386 5905 c-76 -26 -130 -104 -129 -185 1 -25 10 -77 21 -115 41
-136 172 -686 197 -824 3 -14 7 -37 10 -51 3 -14 8 -36 11 -50 2 -14 7 -38 11
-55 3 -16 7 -37 9 -45 2 -17 69 -378 84 -455 5 -27 12 -68 15 -90 5 -41 11
-76 20 -130 3 -16 8 -50 11 -74 3 -25 8 -50 11 -55 4 -7 3 -8 -4 -1 -5 6 -45
73 -87 150 -104 185 -208 351 -324 515 -53 74 -98 137 -102 140 -3 3 -19 23
-35 45 -17 22 -32 42 -35 45 -3 3 -30 34 -60 70 -195 231 -428 446 -627 580
-119 80 -209 78 -289 -5 -81 -84 -76 -141 34 -361 105 -209 362 -770 362 -788
0 -3 13 -33 28 -68 16 -35 46 -106 67 -158 20 -52 43 -108 50 -125 12 -27 29
-71 130 -335 18 -47 36 -95 39 -106 4 -12 -53 38 -126 110 -134 133 -260 249
-353 322 -27 21 -52 41 -55 44 -26 29 -259 190 -360 250 -86 51 -269 144 -332
169 -43 17 -69 22 -100 17 -24 -3 -49 -7 -56 -8 -7 -1 -33 -19 -57 -40 -49
-44 -74 -102 -67 -163 5 -52 22 -84 97 -180 222 -287 686 -971 856 -1262 9
-16 48 -81 88 -145 39 -65 71 -120 71 -122 0 -5 -27 10 -98 56 -80 51 -357
192 -477 243 -234 100 -567 196 -654 188 -59 -5 -115 -38 -148 -87 -23 -34
-28 -51 -27 -106 0 -47 5 -73 19 -95 21 -32 25 -35 245 -230 80 -70 165 -147
190 -171 25 -24 92 -87 150 -141 122 -115 508 -500 629 -629 l85 -89 -351 -5
-351 -5 -26 -24 c-49 -46 -40 -134 16 -171 20 -12 382 -14 2733 -15 1491 0
2725 1 2743 3 47 6 92 54 92 99 0 43 -25 88 -57 102 -15 7 -104 11 -233 11
-116 0 -210 2 -210 5 0 8 164 178 391 404 283 284 476 467 704 665 185 162
202 180 215 235 6 27 9 65 6 85 -13 82 -92 154 -177 160 -97 7 -442 -94 -684
-202 -109 -48 -338 -167 -438 -226 -54 -32 -99 -57 -101 -55 -2 2 43 81 100
174 57 94 116 190 131 215 24 39 152 238 272 420 115 176 308 449 468 663 119
159 131 181 136 234 10 118 -99 224 -216 210 -25 -3 -84 -25 -133 -48 -49 -24
-90 -42 -91 -41 -2 1 -37 -18 -79 -43 -41 -25 -77 -45 -79 -45 -7 0 -221 -144
-295 -198 -137 -101 -303 -245 -462 -402 -87 -85 -158 -154 -158 -153 0 5 91
249 100 268 5 11 34 85 65 165 32 80 63 159 70 175 8 17 46 106 85 199 124
295 241 550 366 799 88 175 96 204 76 272 -33 117 -158 176 -267 126 -38 -17
-230 -155 -266 -190 -9 -9 -41 -36 -70 -61 -204 -175 -439 -447 -651 -755 -86
-126 -288 -459 -288 -477 0 -6 -2 -9 -5 -6 -3 3 5 70 19 149 14 79 28 158 31
174 3 17 8 41 10 55 3 14 8 38 11 53 14 78 66 336 74 367 5 19 12 51 15 70 3
19 12 59 20 88 7 28 12 52 10 52 -2 0 168 673 178 705 14 43 30 103 31 120 3
31 -19 100 -43 133 -46 65 -160 92 -235 57 -64 -30 -248 -233 -383 -421 -221
-307 -433 -738 -582 -1184 -23 -69 -45 -132 -48 -140 -3 -8 -27 53 -54 135
-27 83 -53 159 -58 170 -5 11 -17 43 -26 70 -10 28 -23 64 -30 80 -7 17 -36
86 -65 155 -58 139 -157 341 -227 464 -45 79 -203 321 -235 361 -169 208 -240
285 -284 308 -43 22 -103 27 -148 12z"/>
<path d="M6542 1300 l-134 -5 -29 -33 c-34 -37 -38 -79 -12 -123 28 -47 57
-53 277 -52 288 1 270 -1 305 32 26 24 31 36 31 75 0 38 -5 52 -27 72 -14 13
-36 27 -47 30 -32 7 -214 10 -364 4z"/>
<path d="M61 1286 c-32 -18 -50 -53 -51 -98 0 -48 47 -97 93 -99 226 -8 266 1
292 66 23 53 -1 116 -51 135 -39 15 -254 12 -283 -4z"/>
</g>
</svg>
